<!DOCTYPE svg PUBLIC "-//W3C//DTD SVG 1.1//EN" "http://www.w3.org/Graphics/SVG/1.1/DTD/svg11.dtd">
<!-- Uploaded to: SVG Repo, www.svgrepo.com, Transformed by: SVG Repo Mixer Tools -->
<svg width="800px" height="800px" viewBox="0 0 24 24" fill="none" xmlns="http://www.w3.org/2000/svg" stroke="#ffffff" transform="matrix(1, 0, 0, 1, 0, 0)rotate(0)">
<g id="SVGRepo_bgCarrier" stroke-width="0"/>
<g id="SVGRepo_tracerCarrier" stroke-linecap="round" stroke-linejoin="round" stroke="#CCCCCC" stroke-width="4.8"> <circle cx="12" cy="12" r="6" stroke="#ffffff" stroke-width="1.5"/> <path d="M12 2V3" stroke="#ffffff" stroke-width="1.5" stroke-linecap="round"/> <path d="M12 21V22" stroke="#ffffff" stroke-width="1.5" stroke-linecap="round"/> <path d="M22 12L21 12" stroke="#ffffff" stroke-width="1.5" stroke-linecap="round"/> <path d="M3 12L2 12" stroke="#ffffff" stroke-width="1.5" stroke-linecap="round"/> <path opacity="0.5" d="M19.0708 4.92969L18.678 5.32252" stroke="#ffffff" stroke-width="1.5" stroke-linecap="round"/> <path opacity="0.5" d="M5.32178 18.6777L4.92894 19.0706" stroke="#ffffff" stroke-width="1.5" stroke-linecap="round"/> <path opacity="0.5" d="M19.0708 19.0703L18.678 18.6775" stroke="#ffffff" stroke-width="1.5" stroke-linecap="round"/> <path opacity="0.5" d="M5.32178 5.32227L4.92894 4.92943" stroke="#ffffff" stroke-width="1.5" stroke-linecap="round"/> </g>
<g id="SVGRepo_iconCarrier"> <circle cx="12" cy="12" r="6" stroke="#ffffff" stroke-width="1.5"/> <path d="M12 2V3" stroke="#ffffff" stroke-width="1.5" stroke-linecap="round"/> <path d="M12 21V22" stroke="#ffffff" stroke-width="1.5" stroke-linecap="round"/> <path d="M22 12L21 12" stroke="#ffffff" stroke-width="1.5" stroke-linecap="round"/> <path d="M3 12L2 12" stroke="#ffffff" stroke-width="1.5" stroke-linecap="round"/> <path opacity="0.5" d="M19.0708 4.92969L18.678 5.32252" stroke="#ffffff" stroke-width="1.5" stroke-linecap="round"/> <path opacity="0.5" d="M5.32178 18.6777L4.92894 19.0706" stroke="#ffffff" stroke-width="1.5" stroke-linecap="round"/> <path opacity="0.5" d="M19.0708 19.0703L18.678 18.6775" stroke="#ffffff" stroke-width="1.5" stroke-linecap="round"/> <path opacity="0.5" d="M5.32178 5.32227L4.92894 4.92943" stroke="#ffffff" stroke-width="1.5" stroke-linecap="round"/> </g>
</svg>